<svg xmlns="http://www.w3.org/2000/svg" viewBox="0 0 64 64">
  <circle cx="32" cy="32" r="32" fill="#de2910"/>
  <g fill="#ffde00">
    <path d="M18 11.5l2.25 6.93h7.29l-5.9 4.28 2.26 6.93L18 25.36l-5.9 4.28 2.26-6.93-5.9-4.28h7.29L18 11.5z"/>
    <path d="M36.2 9.8l.82 2.53h2.66l-2.15 1.56.82 2.53-2.15-1.56-2.16 1.56.83-2.53-2.16-1.56h2.67l.82-2.53z" transform="rotate(22 36.2 13.1)"/>
    <path d="M43 18.6l.82 2.53h2.66l-2.15 1.56.82 2.53L43 23.66l-2.15 1.56.82-2.53-2.15-1.56h2.66L43 18.6z" transform="rotate(44 43 21.9)"/>
    <path d="M42.6 30.4l.82 2.53h2.66l-2.15 1.56.82 2.53-2.15-1.56-2.16 1.56.83-2.53-2.16-1.56h2.67l.82-2.53z" transform="rotate(67 42.6 33.7)"/>
    <path d="M35.6 39l.82 2.53h2.66l-2.15 1.56.82 2.53-2.15-1.56-2.16 1.56.83-2.53-2.16-1.56h2.67L35.6 39z" transform="rotate(20 35.6 42.3)"/>
  </g>
</svg>
