<svg xmlns="http://www.w3.org/2000/svg" viewBox="0 0 64 64">
  <circle cx="32" cy="32" r="32" fill="#ed1b2f"/>
  <g transform="translate(32 32)">
    <g fill="#fff">
      <path d="M0-2.7c1.2-8.9 8.7-13.4 15.1-8.8-4.2.7-7.9 3.8-10.4 7.7C2.7-.7 1.2.9.1 2.1z"/>
      <path d="M0-2.7c1.2-8.9 8.7-13.4 15.1-8.8-4.2.7-7.9 3.8-10.4 7.7C2.7-.7 1.2.9.1 2.1z" transform="rotate(72)"/>
      <path d="M0-2.7c1.2-8.9 8.7-13.4 15.1-8.8-4.2.7-7.9 3.8-10.4 7.7C2.7-.7 1.2.9.1 2.1z" transform="rotate(144)"/>
      <path d="M0-2.7c1.2-8.9 8.7-13.4 15.1-8.8-4.2.7-7.9 3.8-10.4 7.7C2.7-.7 1.2.9.1 2.1z" transform="rotate(216)"/>
      <path d="M0-2.7c1.2-8.9 8.7-13.4 15.1-8.8-4.2.7-7.9 3.8-10.4 7.7C2.7-.7 1.2.9.1 2.1z" transform="rotate(288)"/>
    </g>
    <g fill="#ed1b2f">
      <circle cx="5.7" cy="-6.9" r=".85"/>
      <circle cx="8.4" cy="3.1" r=".85"/>
      <circle cx="-.3" cy="9" r=".85"/>
      <circle cx="-8.6" cy="2.5" r=".85"/>
      <circle cx="-5.1" cy="-7.4" r=".85"/>
    </g>
  </g>
</svg>
